<svg width="45" height="45" viewBox="0 0 45 45" fill="none" xmlns="http://www.w3.org/2000/svg">
<rect width="45" height="45" fill="white"/>
<path d="M10.764 30C10.9703 29.0812 10.5953 27.7687 9.93901 27.1125L5.38276 22.5562C3.95776 21.1313 3.39526 19.6125 3.80776 18.3C4.23901 16.9875 5.57026 16.0875 7.55776 15.75L13.4078 14.775C14.2515 14.625 15.2828 13.875 15.6765 13.1062L18.9015 6.6375C19.839 4.78125 21.114 3.75 22.5015 3.75C23.889 3.75 25.164 4.78125 26.1015 6.6375L29.3265 13.1062C29.5703 13.5938 30.0765 14.0625 30.6203 14.3813L10.4265 34.575C10.164 34.8375 9.71401 34.5938 9.78901 34.2188L10.764 30Z" fill="#4B8079"/>
<path d="M35.0625 27.1121C34.3875 27.7871 34.0125 29.0808 34.2375 29.9996L35.5313 35.6433C36.075 37.9871 35.7375 39.7496 34.575 40.5933C34.1063 40.9308 33.5438 41.0996 32.8875 41.0996C31.9313 41.0996 30.8062 40.7433 29.5688 40.0121L24.075 36.7496C23.2125 36.2433 21.7875 36.2433 20.925 36.7496L15.4312 40.0121C13.35 41.2308 11.5687 41.4371 10.425 40.5933C9.99375 40.2746 9.675 39.8433 9.46875 39.2808L32.2687 16.4808C33.1312 15.6183 34.35 15.2246 35.5313 15.4308L37.425 15.7496C39.4125 16.0871 40.7437 16.9871 41.175 18.2996C41.5875 19.6121 41.025 21.1308 39.6 22.5558L35.0625 27.1121Z" fill="#4B8079"/>
</svg>
